<svg xmlns="http://www.w3.org/2000/svg" xmlns:xlink="http://www.w3.org/1999/xlink" width="44" height="45" viewBox="0 0 44 45">
    <defs>
        <path id="a" d="M3.104.02H.041v11.658h3.063V.02z"/>
        <path id="c" d="M3.11.02H.046v11.658H3.11V.02z"/>
        <path id="e" d="M3.116.02H.052v11.658h3.064V.02z"/>
        <path id="g" d="M3.12.02H.056v11.658H3.12V.02z"/>
        <path id="i" d="M3.128.02H.064v11.658h3.064V.02z"/>
        <path id="k" d="M.064 12.202h3.064V.545H.064v11.657z"/>
        <path id="m" d="M.059 12.202h3.064V.545H.059v11.657z"/>
        <path id="o" d="M.052 12.202h3.064V.545H.052v11.657z"/>
    </defs>
    <g fill="none" fill-rule="evenodd">
        <path d="M-6-5h56v56H-6z"/>
        <path fill="#DCE2E9" d="M10.044 31.532c.845 0 1.531.69 1.531 1.543 0 .852-.686 1.543-1.531 1.543H1.532A1.538 1.538 0 0 1 0 33.075c0-.852.686-1.543 1.532-1.543h8.512zM10.044 26.39c.845 0 1.531.69 1.531 1.542 0 .851-.686 1.543-1.531 1.543H1.532A1.538 1.538 0 0 1 0 27.932c0-.852.686-1.543 1.532-1.543h8.512zM10.044 21.245c.845 0 1.531.692 1.531 1.544 0 .853-.686 1.542-1.531 1.542H1.532C.686 24.33 0 23.64 0 22.789c0-.852.686-1.544 1.532-1.544h8.512zM10.044 16.104c.845 0 1.531.689 1.531 1.542a1.54 1.54 0 0 1-1.531 1.544H1.532A1.54 1.54 0 0 1 0 17.646c0-.853.686-1.542 1.532-1.542h8.512zM10.044 10.958a1.54 1.54 0 0 1 1.531 1.544c0 .853-.686 1.541-1.531 1.541H1.532A1.536 1.536 0 0 1 0 12.503c0-.851.686-1.545 1.532-1.545h8.512z"/>
        <g fill="#DCE2E9">
            <path d="M3.27 34.618h6.774c.845 0 1.531-.691 1.531-1.543s-.686-1.543-1.531-1.543H3.269v3.086zM3.27 29.475h6.774c.845 0 1.531-.692 1.531-1.543 0-.852-.686-1.543-1.531-1.543H3.269v3.086zM3.27 24.33h6.774c.845 0 1.531-.688 1.531-1.54 0-.853-.686-1.545-1.531-1.545H3.269v3.086zM3.27 19.19h6.774a1.54 1.54 0 0 0 1.531-1.544c0-.853-.686-1.542-1.531-1.542H3.269v3.085zM3.27 14.044h6.774c.845 0 1.531-.689 1.531-1.542a1.54 1.54 0 0 0-1.531-1.544H3.269v3.086z"/>
        </g>
        <path fill="#DCE2E9" d="M33.937 14.044c-.846 0-1.532-.69-1.532-1.542 0-.853.686-1.544 1.532-1.544h8.511c.846 0 1.532.69 1.532 1.544 0 .851-.686 1.542-1.532 1.542h-8.511zM33.937 19.187c-.846 0-1.532-.69-1.532-1.543 0-.851.686-1.544 1.532-1.544h8.511c.846 0 1.532.693 1.532 1.544 0 .853-.686 1.543-1.532 1.543h-8.511zM33.937 24.33a1.538 1.538 0 0 1-1.532-1.544c0-.852.686-1.541 1.532-1.541h8.511c.846 0 1.532.69 1.532 1.541 0 .853-.686 1.545-1.532 1.545h-8.511zM33.937 29.472c-.846 0-1.532-.689-1.532-1.542 0-.85.686-1.544 1.532-1.544h8.511a1.54 1.54 0 0 1 1.532 1.544c0 .853-.686 1.542-1.532 1.542h-8.511zM33.937 34.618a1.54 1.54 0 0 1-1.532-1.544c0-.853.686-1.542 1.532-1.542h8.511c.846 0 1.532.689 1.532 1.542a1.54 1.54 0 0 1-1.532 1.544h-8.511z"/>
        <g fill="#DCE2E9">
            <path d="M40.71 10.958h-6.773c-.846 0-1.532.69-1.532 1.544 0 .851.686 1.541 1.532 1.541h6.774v-3.085zM40.71 16.1h-6.773c-.846 0-1.532.693-1.532 1.544 0 .852.686 1.543 1.532 1.543h6.774v-3.086zM40.71 21.245h-6.773c-.846 0-1.532.689-1.532 1.541 0 .853.686 1.545 1.532 1.545h6.774v-3.086zM40.71 26.387h-6.773a1.54 1.54 0 0 0-1.532 1.544c0 .852.686 1.541 1.532 1.541h6.774v-3.085zM40.71 31.532h-6.773c-.846 0-1.532.69-1.532 1.541s.686 1.545 1.532 1.545h6.774v-3.086z"/>
        </g>
        <g transform="translate(10.203 .621)">
            <mask id="b" fill="#fff">
                <use xlink:href="#a"/>
            </mask>
            <path fill="#DCE2E9" d="M3.104 10.135c0 .852-.685 1.543-1.53 1.543A1.537 1.537 0 0 1 .04 10.135V1.563C.041.713.727.02 1.573.02s1.531.692 1.531 1.543v8.572z" mask="url(#b)"/>
        </g>
        <g transform="translate(15.304 .621)">
            <mask id="d" fill="#fff">
                <use xlink:href="#c"/>
            </mask>
            <path fill="#DCE2E9" d="M3.11 10.135c0 .852-.685 1.543-1.532 1.543a1.538 1.538 0 0 1-1.532-1.543V1.563C.046.713.732.02 1.578.02c.847 0 1.532.692 1.532 1.543v8.572z" mask="url(#d)"/>
        </g>
        <g transform="translate(20.406 .621)">
            <mask id="f" fill="#fff">
                <use xlink:href="#e"/>
            </mask>
            <path fill="#DCE2E9" d="M3.116 10.135c0 .852-.686 1.543-1.533 1.543-.846 0-1.53-.691-1.53-1.543V1.563C.052.713.736.02 1.582.02c.847 0 1.533.692 1.533 1.543v8.572z" mask="url(#f)"/>
        </g>
        <g transform="translate(25.507 .621)">
            <mask id="h" fill="#fff">
                <use xlink:href="#g"/>
            </mask>
            <path fill="#DCE2E9" d="M3.12 10.135c0 .852-.684 1.543-1.53 1.543a1.54 1.54 0 0 1-1.534-1.543V1.563C.056.713.744.02 1.59.02c.846 0 1.53.692 1.53 1.543v8.572z" mask="url(#h)"/>
        </g>
        <g transform="translate(30.609 .621)">
            <mask id="j" fill="#fff">
                <use xlink:href="#i"/>
            </mask>
            <path fill="#DCE2E9" d="M3.128 10.135a1.54 1.54 0 0 1-1.533 1.543c-.847 0-1.53-.691-1.53-1.543V1.563C.064.713.747.02 1.594.02a1.54 1.54 0 0 1 1.533 1.543v8.572z" mask="url(#j)"/>
        </g>
        <g fill="#DCE2E9">
            <path d="M10.244 3.934v6.823c0 .851.685 1.542 1.532 1.542.846 0 1.532-.69 1.532-1.542V3.934h-3.064zM15.35 3.934v6.823c0 .851.687 1.542 1.532 1.542.846 0 1.533-.69 1.533-1.542V3.934H15.35zM20.458 3.934v6.823c0 .851.684 1.542 1.53 1.542.847 0 1.534-.69 1.534-1.542V3.934h-3.064zM25.563 3.934v6.823a1.54 1.54 0 0 0 1.533 1.542c.847 0 1.531-.69 1.531-1.542V3.934h-3.064zM30.673 3.934v6.823c0 .851.683 1.542 1.53 1.542a1.54 1.54 0 0 0 1.533-1.542V3.934h-3.063z"/>
        </g>
        <g transform="translate(30.609 32.732)">
            <mask id="l" fill="#fff">
                <use xlink:href="#k"/>
            </mask>
            <path fill="#DCE2E9" d="M.064 2.088C.064 1.236.75.545 1.595.545c.847 0 1.533.691 1.533 1.543v8.572c0 .85-.686 1.542-1.533 1.542a1.538 1.538 0 0 1-1.53-1.542V2.088z" mask="url(#l)"/>
        </g>
        <g transform="translate(25.507 32.732)">
            <mask id="n" fill="#fff">
                <use xlink:href="#m"/>
            </mask>
            <path fill="#DCE2E9" d="M.059 2.088C.059 1.236.744.545 1.59.545c.847 0 1.533.691 1.533 1.543v8.572c0 .85-.686 1.542-1.533 1.542A1.538 1.538 0 0 1 .06 10.66V2.088z" mask="url(#n)"/>
        </g>
        <g transform="translate(20.406 32.732)">
            <mask id="p" fill="#fff">
                <use xlink:href="#o"/>
            </mask>
            <path fill="#DCE2E9" d="M.052 2.088C.052 1.236.74.545 1.586.545c.846 0 1.53.691 1.53 1.543v8.572c0 .85-.684 1.542-1.53 1.542A1.539 1.539 0 0 1 .052 10.66V2.088z" mask="url(#p)"/>
        </g>
        <path fill="#DCE2E9" d="M15.353 34.82c0-.852.684-1.543 1.53-1.543a1.54 1.54 0 0 1 1.534 1.542v8.573a1.54 1.54 0 0 1-1.533 1.542c-.847 0-1.53-.691-1.53-1.542v-8.573zM10.244 34.82a1.54 1.54 0 0 1 1.533-1.543c.846 0 1.53.69 1.53 1.542v8.573c0 .85-.684 1.542-1.53 1.542a1.54 1.54 0 0 1-1.533-1.542v-8.573z"/>
        <g fill="#DCE2E9">
            <path d="M33.736 41.641V34.82c0-.85-.685-1.542-1.532-1.542-.846 0-1.531.691-1.531 1.542v6.822h3.063zM28.63 41.641V34.82c0-.85-.686-1.542-1.532-1.542s-1.532.691-1.532 1.542v6.822h3.064zM23.522 41.641V34.82c0-.85-.684-1.542-1.53-1.542-.847 0-1.534.691-1.534 1.542v6.822h3.064zM18.417 41.641V34.82c0-.85-.688-1.542-1.533-1.542-.847 0-1.531.691-1.531 1.542v6.822h3.064zM13.307 41.641V34.82c0-.85-.683-1.542-1.53-1.542a1.54 1.54 0 0 0-1.533 1.542v6.822h3.063z"/>
        </g>
        <path fill="#00ADEE" d="M39.564 35.601c0 2.702-2.176 4.893-4.859 4.893H9.266c-2.685 0-4.859-2.19-4.859-4.893V9.981c0-2.703 2.174-4.893 4.86-4.893h25.438c2.683 0 4.859 2.19 4.859 4.893v25.62z"/>
        <path fill="#DCE2E9" d="M11.66 37.266c-2.232 0-4.05-1.829-4.05-4.077V12.393c0-2.247 1.818-4.076 4.05-4.076H32.31c2.232 0 4.049 1.829 4.049 4.076V33.19c0 2.248-1.817 4.077-4.05 4.077H11.662z"/>
        <path fill="#00ADEE" d="M35.548 33.189c0 1.801-1.45 3.262-3.24 3.262H11.662c-1.79 0-3.239-1.46-3.239-3.262V12.393c0-1.8 1.45-3.261 3.239-3.261h20.648c1.789 0 3.24 1.46 3.24 3.261V33.19z"/>
        <path fill="#DCE2E9" d="M29.272 28.5c0 .9-.725 1.63-1.62 1.63H16.318c-.894 0-1.62-.73-1.62-1.63V17.083c0-.901.726-1.631 1.62-1.631h11.336c.894 0 1.62.73 1.62 1.631V28.5z"/>
        <path fill="#93A2B4" d="M28.058 27.548c0 .75-.604 1.36-1.349 1.36h-9.448c-.746 0-1.35-.61-1.35-1.36v-9.514c0-.75.604-1.36 1.35-1.36h9.448c.745 0 1.35.61 1.35 1.36v9.514z"/>
    </g>
</svg>
