<svg xmlns="http://www.w3.org/2000/svg" xmlns:xlink="http://www.w3.org/1999/xlink" width="100" height="15" viewBox="0 0 100 15">
    <defs>
        <path id="a" d="M0 7.946V.08h7.411v7.865H0z"/>
        <path id="c" d="M.003.099h10.742v14.3H.003V.1z"/>
    </defs>
    <g fill="none" fill-rule="evenodd">
        <path fill="#EFC319" d="M15.13 13.6L9.015.506a.485.485 0 0 0-.439-.28h-1.52a.485.485 0 0 0-.44.691l6.117 13.096c.08.17.251.28.44.28h1.52c.354 0 .589-.37.439-.691"/>
        <g transform="translate(0 6.346)">
            <mask id="b" fill="#fff">
                <use xlink:href="#a"/>
            </mask>
            <path fill="#EFC319" d="M6.316 5.67H3.377l1.528-3.271c.06-.13.06-.281 0-.411L4.145.36a.485.485 0 0 0-.879 0L.046 7.255c-.15.322.085.69.44.69h6.44c.355 0 .59-.368.439-.69l-.61-1.306a.485.485 0 0 0-.44-.28" mask="url(#b)"/>
        </g>
        <path fill="#424143" d="M30.113 7.26L34.271.98a.485.485 0 0 0-.404-.753h-1.583a.484.484 0 0 0-.404.217l-3.141 4.742L25.597.443a.484.484 0 0 0-.404-.217H23.61a.485.485 0 0 0-.404.753l4.158 6.282-4.157 6.277a.485.485 0 0 0 .404.753h1.588a.485.485 0 0 0 .404-.217l3.136-4.737 3.135 4.737c.09.136.242.217.404.217h1.589c.386 0 .617-.43.404-.753l-4.158-6.277zM46.18 14.291h-1.126a.574.574 0 0 1-.574-.574V.8c0-.317.257-.574.574-.574h1.126c.317 0 .574.257.574.574v12.917a.574.574 0 0 1-.574.574M65.352 12.015h-4.845V.874a.648.648 0 0 0-.648-.649h-.979a.648.648 0 0 0-.648.649V13.643c0 .358.29.648.648.648H65.352c.358 0 .648-.29.648-.648v-.98a.648.648 0 0 0-.648-.648"/>
        <g transform="translate(88.735 .002)">
            <mask id="d" fill="#fff">
                <use xlink:href="#c"/>
            </mask>
            <path fill="#424143" d="M10.51 8.923a2.813 2.813 0 0 0-.75-1.072c-.336-.302-.77-.575-1.294-.814a12.014 12.014 0 0 0-1.896-.65 52.605 52.605 0 0 1-1.834-.521c-.49-.151-.9-.32-1.216-.5-.304-.172-.525-.365-.658-.574-.13-.204-.197-.46-.197-.762 0-.303.07-.57.208-.794.14-.23.332-.424.568-.577.242-.157.522-.277.831-.356.315-.08.65-.121.995-.121.455 0 .859.065 1.2.193.345.13.64.285.879.462.237.177.428.36.566.547a3.5 3.5 0 0 1 .304.47c.106.211.212.348.324.417.11.068.255.102.428.102h.794c.16 0 .303-.057.426-.171a.507.507 0 0 0 .17-.43c-.015-.348-.139-.742-.37-1.17a4.203 4.203 0 0 0-.998-1.193 5.87 5.87 0 0 0-1.576-.93C6.796.228 6.074.1 5.267.1c-.792 0-1.493.11-2.083.33-.593.22-1.094.515-1.49.877A3.698 3.698 0 0 0 .487 4.03c0 .456.066.885.193 1.274.13.396.347.763.647 1.09.295.323.682.612 1.15.86.462.244 1.029.454 1.684.624.705.18 1.345.353 1.904.513.55.158 1.02.334 1.395.522.365.183.647.388.839.609.18.21.269.456.269.752 0 .301-.082.576-.243.818-.167.25-.398.468-.686.649a3.6 3.6 0 0 1-1.027.425c-.39.1-.81.15-1.247.15-.509 0-.954-.062-1.322-.185a3.746 3.746 0 0 1-.946-.454 2.638 2.638 0 0 1-.948-1.12c-.094-.22-.204-.36-.338-.432a.88.88 0 0 0-.418-.097H.598a.576.576 0 0 0-.42.175.582.582 0 0 0-.175.425c.013.442.162.894.441 1.345.274.442.65.848 1.116 1.208a5.896 5.896 0 0 0 1.675.88 6.482 6.482 0 0 0 2.13.338c.8 0 1.537-.1 2.189-.298.656-.199 1.225-.482 1.692-.842.47-.363.84-.803 1.102-1.307a3.598 3.598 0 0 0 .397-1.678c0-.496-.079-.95-.234-1.35" mask="url(#d)"/>
        </g>
        <path fill="#424143" d="M77.449 14.291h-1.127a.574.574 0 0 1-.574-.574V.8c0-.317.257-.574.574-.574h1.127c.317 0 .574.257.574.574v12.917a.574.574 0 0 1-.574.574"/>
    </g>
</svg>
