<svg xmlns="http://www.w3.org/2000/svg" xmlns:xlink="http://www.w3.org/1999/xlink" width="31" height="43" viewBox="0 0 31 43">
    <defs>
        <path id="a" d="M0 16.264V.32h12.77v15.944H0z"/>
    </defs>
    <g fill="none" fill-rule="evenodd">
        <path d="M-13-7h56v56h-56z"/>
        <g transform="translate(0 .303)">
            <mask id="b" fill="#fff">
                <use xlink:href="#a"/>
            </mask>
            <path fill="#797979" d="M2.861 15.967C.115 13.45-1.563 9.87 2.131 7.389c1.363-.913 3.432-1.057 4.986-1.425 2.469-.583 4.492-1.369 2.942-4.145C9.392.623 11.287-.324 11.954.87c2.036 3.646.041 5.9-3.533 6.953-1.759.516-3.697.635-5.347 1.47-2.601 1.322.118 4.11 1.364 5.254 1.009.923-.577 2.335-1.577 1.42" mask="url(#b)"/>
        </g>
        <path fill="#2ECC71" d="M11.816 39.43l-8.43-8.473c-4.31-4.332-4.314-11.354 0-15.69a10.999 10.999 0 0 1 15.61 0l8.43 8.473c4.309 4.332 4.306 11.361 0 15.69a10.994 10.994 0 0 1-15.61 0"/>
        <path fill="#30AA61" d="M25.667 37.66a10.992 10.992 0 0 1-15.61 0l1.759 1.77a10.994 10.994 0 0 0 15.61 0c4.306-4.329 4.309-11.358 0-15.69l-1.76-1.769c4.312 4.333 4.308 11.363 0 15.69M12.629 23.58l-8.741-8.785a11.11 11.11 0 0 0-.971.977l8.74 8.783C8.89 27.528 7.244 31.056 6.82 34.41l1.258 1.264c.135-3.535 1.865-7.46 5.026-10.638 3.159-3.176 7.068-4.916 10.583-5.051l-1.258-1.265c-3.334.426-6.845 2.08-9.801 4.86"/>
        <path fill="#797979" d="M7.175 22.752l-1.976-1.987a2.61 2.61 0 0 1 0-3.677 2.579 2.579 0 0 1 3.658 0l1.976 1.987a2.612 2.612 0 0 1 0 3.677 2.578 2.578 0 0 1-3.658 0"/>
        <path fill="#5A6271" d="M5.2 17.088a2.61 2.61 0 0 0 0 3.677l.352.353a2.608 2.608 0 0 1 0-3.676 2.579 2.579 0 0 1 3.657 0l-.353-.354a2.578 2.578 0 0 0-3.657 0M10.48 22.398a2.576 2.576 0 0 1-3.656 0l.35.354a2.578 2.578 0 0 0 3.659 0 2.612 2.612 0 0 0 0-3.677l-.353-.353a2.608 2.608 0 0 1 0 3.676M6.509 20.837a.423.423 0 0 0 .595.6l2.42-2.434a.425.425 0 0 0 0-.599.42.42 0 0 0-.595 0l-2.42 2.433z"/>
        <path fill="#5A6271" d="M5.453 19.777a.425.425 0 0 0 0 .598.42.42 0 0 0 .595 0l2.42-2.433a.424.424 0 0 0 0-.598.418.418 0 0 0-.594 0l-2.421 2.433zM7.563 21.899a.423.423 0 0 0 .596.597l2.42-2.432a.425.425 0 0 0 0-.598.421.421 0 0 0-.595-.002L7.564 21.9z"/>
    </g>
</svg>
