<svg xmlns="http://www.w3.org/2000/svg" xmlns:xlink="http://www.w3.org/1999/xlink" width="41" height="41" viewBox="0 0 41 41">
    <defs>
        <path id="a" d="M0 .018h32.587v32.5H0V.019z"/>
    </defs>
    <g fill="none" fill-rule="evenodd">
        <path d="M-8-7h56v56H-8z"/>
        <path fill="#A6A8AB" d="M37.006 33.837l-3.257 3.249-9.717-9.692 3.256-3.248z"/>
        <path fill="#9B59B6" d="M27.248 32.17l8 7.982c1.192 1.189 3.226 1.09 4.54-.222 1.32-1.313 1.416-3.34.226-4.53l-8-7.979-4.766 4.75z"/>
        <g transform="translate(0 .088)">
            <mask id="b" fill="#fff">
                <use xlink:href="#a"/>
            </mask>
            <path fill="#A6A8AB" d="M16.295.017C7.296.017 0 7.294 0 16.27 0 25.244 7.296 32.52 16.295 32.52c8.998 0 16.292-7.275 16.292-16.249 0-8.976-7.294-16.253-16.292-16.253" mask="url(#b)"/>
        </g>
        <path fill="#E6E7E8" d="M16.295 28.544c-6.747 0-12.221-5.459-12.221-12.188 0-6.734 5.474-12.187 12.221-12.187 6.748 0 12.22 5.453 12.22 12.187 0 6.73-5.472 12.188-12.22 12.188"/>
        <path fill="#E6E7E8" d="M16.295 27.282c-6.048 0-10.956-4.893-10.956-10.926 0-6.037 4.908-10.926 10.956-10.926 6.05 0 10.954 4.89 10.954 10.926 0 6.033-4.905 10.926-10.954 10.926"/>
        <path fill="#F1F1F2" d="M6.458 17.475c0-6.036 4.908-10.925 10.958-10.925 2.737 0 5.24 1.002 7.163 2.661a10.935 10.935 0 0 0-8.284-3.781c-6.048 0-10.956 4.89-10.956 10.926 0 3.3 1.47 6.256 3.792 8.26a10.85 10.85 0 0 1-2.673-7.14"/>
        <path fill="#F1F1F2" d="M23.503 18.13a3.52 3.52 0 0 1-3.524-3.514 3.52 3.52 0 0 1 3.524-3.514 3.52 3.52 0 0 1 3.523 3.514 3.518 3.518 0 0 1-3.523 3.513"/>
        <path fill="#F3F3F3" d="M19.979 18.695a2.343 2.343 0 0 1-2.345-2.339 2.343 2.343 0 0 1 2.345-2.339 2.343 2.343 0 0 1 2.346 2.34 2.343 2.343 0 0 1-2.346 2.338"/>
    </g>
</svg>
