<svg xmlns="http://www.w3.org/2000/svg" width="40" height="42" viewBox="0 0 40 42">
    <g fill="none" fill-rule="evenodd">
        <path d="M-8-7h56v56H-8z"/>
        <path fill="#CE6D0D" d="M19.895 30.787c-5.004 0-9.064-4.056-9.064-9.058 0-5.003 4.06-9.059 9.064-9.059 5.006 0 9.064 4.056 9.064 9.059 0 5.002-4.058 9.058-9.064 9.058M38.58 18.35l-3.307-.548a15.821 15.821 0 0 0-1.734-4.177l1.987-2.784c.383-.537.313-1.35-.153-1.817l-2.833-2.829c-.466-.468-1.28-.533-1.816-.15l-2.789 1.99a15.836 15.836 0 0 0-4.178-1.725l-.549-3.29c-.107-.649-.729-1.177-1.39-1.177h-3.978c-.659 0-1.282.528-1.389 1.177l-.549 3.288a15.857 15.857 0 0 0-4.18 1.727l-2.786-1.99c-.536-.383-1.348-.318-1.814.15L4.29 9.026c-.466.466-.534 1.279-.15 1.816l1.992 2.786a15.796 15.796 0 0 0-1.728 4.175l-3.257.548C.496 18.46 0 19.082 0 19.738v3.98c0 .659.496 1.278 1.147 1.388l3.27.548c.378 1.487.958 2.89 1.723 4.176l-1.997 2.785c-.383.538-.318 1.35.148 1.816l2.832 2.83c.466.466 1.278.533 1.814.15l2.79-1.991a15.834 15.834 0 0 0 4.176 1.726l.549 3.29c.107.649.73 1.176 1.39 1.176h3.977c.661 0 1.283-.527 1.39-1.176l.549-3.288a15.76 15.76 0 0 0 4.178-1.728l2.79 1.99c.536.384 1.349.317 1.815-.15l2.83-2.829c.467-.466.535-1.278.153-1.816L33.53 29.83a15.765 15.765 0 0 0 1.727-4.175l3.324-.548c.648-.11 1.208-.73 1.208-1.388v-3.98c0-.656-.56-1.277-1.208-1.387"/>
        <path fill="#CE6D0D" d="M35.723 31.37c.13.501.1 1.586.043 2.167-.058.58-.966.606-.953-.565.013-1.17.743-2.256.91-1.602M3.913 33.666c-.064-.502-.045-1.675 0-2.157.044-.483.794.135.768.634-.026.5-.654 2.414-.768 1.523M35.774 8.212s.089 1.145-.001 1.882c-.09.737-1.066.684-1.144-.184-.08-.869.94-2.45 1.145-1.698M3.896 8.239s-.1 1.239.014 2.027c.113.788 1.337.67 1.298-.278-.041-.947-1.163-2.59-1.312-1.75"/>
        <path fill="#F7921E" d="M19.895 29.103c-5.004 0-9.064-4.056-9.064-9.059 0-5.002 4.06-9.058 9.064-9.058 5.006 0 9.064 4.056 9.064 9.058 0 5.003-4.058 9.06-9.064 9.06M38.58 16.666l-3.307-.549a15.821 15.821 0 0 0-1.734-4.177l1.987-2.784c.383-.536.313-1.35-.153-1.815l-2.833-2.83c-.466-.467-1.28-.533-1.816-.15l-2.789 1.99a15.781 15.781 0 0 0-4.178-1.725l-.549-3.29C23.102.688 22.48.16 21.82.16h-3.978c-.659 0-1.282.528-1.389 1.175l-.549 3.29a15.802 15.802 0 0 0-4.18 1.726l-2.786-1.99c-.536-.383-1.348-.317-1.814.15L4.29 7.342c-.466.466-.534 1.279-.15 1.815l1.992 2.788a15.791 15.791 0 0 0-1.728 4.173l-3.257.55C.496 16.775 0 17.397 0 18.054v3.979c0 .658.496 1.279 1.147 1.388l3.27.548c.378 1.487.958 2.89 1.723 4.177l-1.997 2.785c-.383.537-.318 1.35.148 1.814l2.832 2.83c.466.467 1.278.533 1.814.15l2.79-1.99a15.86 15.86 0 0 0 4.176 1.726l.549 3.29c.107.648.73 1.176 1.39 1.176h3.977c.661 0 1.283-.528 1.39-1.175l.549-3.29a15.758 15.758 0 0 0 4.178-1.727l2.79 1.99c.536.383 1.349.317 1.815-.15l2.83-2.83c.467-.465.535-1.277.153-1.814l-1.994-2.788a15.743 15.743 0 0 0 1.727-4.174l3.324-.548c.648-.11 1.208-.73 1.208-1.388v-3.98c0-.656-.56-1.278-1.208-1.387"/>
        <path fill="#FFD0A1" d="M7.21 20.886a.842.842 0 0 1-.842-.842c0-7.454 6.068-13.519 13.527-13.519a.843.843 0 1 1 0 1.685c-6.53 0-11.842 5.308-11.842 11.834a.842.842 0 0 1-.842.842M19.895 33.563a.842.842 0 0 1 0-1.684c6.528 0 11.841-5.31 11.841-11.835a.842.842 0 0 1 1.685 0c0 7.455-6.068 13.52-13.526 13.52"/>
    </g>
</svg>
