<svg xmlns="http://www.w3.org/2000/svg" xmlns:xlink="http://www.w3.org/1999/xlink" width="42" height="42" viewBox="0 0 42 42">
    <defs>
        <path id="a" d="M0 10.991V.248h10.743v10.743H0z"/>
        <path id="c" d="M.223 34.75h34.475V.275H.223V34.75z"/>
    </defs>
    <g fill="none" fill-rule="evenodd">
        <path d="M-8-7h56v56H-8z"/>
        <path fill="#DCE2E9" d="M22.062 9.691a.497.497 0 0 0 0 .702l9.546 9.545a.496.496 0 0 0 .701 0l9.546-9.545a.497.497 0 0 0 0-.702L32.309.145a.496.496 0 0 0-.701 0l-9.546 9.546z"/>
        <path fill="#BFC8D5" d="M32.309.145l.35.35a.496.496 0 0 0-.701 0l-9.545 9.546a.495.495 0 0 0 0 .702l-.351-.35a.498.498 0 0 1 0-.702L31.608.145a.496.496 0 0 1 .701 0"/>
        <g transform="matrix(-1 0 0 1 42 9.092)">
            <mask id="b" fill="#fff">
                <use xlink:href="#a"/>
            </mask>
            <path fill="#FFF" d="M10.042 10.496L.496.95a.495.495 0 0 1 0-.702L.146.6a.496.496 0 0 0 0 .702l9.545 9.544a.494.494 0 0 0 .701 0l.351-.35a.496.496 0 0 1-.7 0" mask="url(#b)"/>
        </g>
        <g transform="matrix(-1 0 0 1 34.684 7.263)">
            <mask id="d" fill="#fff">
                <use xlink:href="#c"/>
            </mask>
            <path fill="#E74C3C" d="M.223 14.306L17.76 31.844c3.874 3.874 10.156 3.874 14.03 0 3.875-3.875 3.875-10.156 0-14.03L14.255.275.223 14.305z" mask="url(#d)"/>
        </g>
        <path fill="#D23929" d="M17.625 38.405l-.701.702c-3.875 3.874-10.157 3.874-14.031 0-3.875-3.875-3.875-10.156 0-14.03l.702-.702c-3.874 3.874-3.874 10.156 0 14.03 3.874 3.875 10.156 3.875 14.03 0z"/>
        <path fill="#D23929" d="M30.58 21.67L15.838 36.415c-2.827 2.826-7.426 2.826-10.252 0a7.257 7.257 0 0 1 0-10.251L20.33 11.42l10.25 10.25zM4.885 37.117c3.212 3.213 8.44 3.212 11.654 0L31.984 21.67 20.33 10.016 4.885 25.461c-3.214 3.213-3.214 8.442 0 11.655z"/>
        <path fill="#BC3729" d="M21.096 20.932l-.973 2.595-.021-.024-.545-.545-5.082 5.082 2.601-.123a.955.955 0 0 0 .631-.28l.28-.28a1.083 1.083 0 0 1 .205-1.241 1.08 1.08 0 1 1 .304 1.74l-.285.283a1.661 1.661 0 0 1-1.101.488l-2.794.134a1.482 1.482 0 0 0-.964.42 1.664 1.664 0 1 1-.513-.51l.38-.381v-.002l.603-.604c.346-.345.543-.82.543-1.31v-2.469c0-.417.17-.824.465-1.12l.311-.313-.486-.488 1.489-1.49 1.492 1.49-1.492 1.493-.499-.501-.312.313a.877.877 0 0 0-.257.616l.002 2.47-.003.059 3.979-3.98-.552-.55 2.594-.972z"/>
        <path fill="#5A6271" d="M33.816 11.34a.495.495 0 0 0 0 .7l1.441 1.442a.496.496 0 0 0 .702 0l.985-.985a.497.497 0 0 0 0-.701l-1.441-1.442a.495.495 0 0 0-.702 0l-.985.986z"/>
        <path fill="#DCE2E9" d="M31.854 13.302a.206.206 0 0 0 0 .293l.602.602a.209.209 0 0 0 .295.001l.411-.413a.207.207 0 0 0 0-.293l-.602-.603a.208.208 0 0 0-.294 0l-.412.413zM27.84 9.287a.206.206 0 0 0 0 .292l.603.604c.08.08.212.08.293 0l.411-.413a.207.207 0 0 0 0-.293l-.602-.603a.207.207 0 0 0-.294 0l-.412.413z"/>
        <path fill="#5A6271" d="M28.555 6.078a.496.496 0 0 0 0 .702l1.441 1.441a.498.498 0 0 0 .702 0l.985-.985a.497.497 0 0 0 0-.702l-1.442-1.44a.495.495 0 0 0-.702 0l-.984.984z"/>
    </g>
</svg>
