<svg xmlns="http://www.w3.org/2000/svg" width="17" height="19" viewBox="0 0 17 19">
    <path fill="#F5C424" fill-rule="nonzero" d="M13.715 4.03l-.932 1.178a6.826 6.826 0 0 1 2.615 6.497c-.598 3.742-4.18 6.309-7.983 5.719-3.803-.59-6.41-4.113-5.813-7.855A6.808 6.808 0 0 1 4.39 5.083a7.013 7.013 0 0 1 4.494-1.306L7.572 5.131l.973.913 2.07-2.138.928-.957-.972-.913L8.398 0 7.47.958l1.416 1.327a8.533 8.533 0 0 0-5.389 1.592 8.288 8.288 0 0 0-3.393 5.46c-.728 4.555 2.446 8.844 7.075 9.56.446.07.889.103 1.326.103 4.109 0 7.733-2.947 8.392-7.063.48-3.006-.739-6.035-3.182-7.906z"/>
</svg>
